# xmcd CD database file
#
# Track frame offsets:
#	150
#	26514
#	53810
#	82563
#	114183
#	153616
#	180141
#	200828
#	229714
#
# Disc length: 3350 seconds
#
# Revision: 0
# Processed by: cddbd v1.5.2PL0 Copyright (c) Steve Scherf et al.
# Submitted via: CDex 1.51
#
DISCID=5e0d1409
DTITLE=Michael Blicher - Blicher Hemmer Gadd
DYEAR=2014
DGENRE=Jazz
TTITLE0=01 - Well I'm Not Really Much of a Dancer
TTITLE1=02 - She Curves, She Curves
TTITLE2=03 - Treme
TTITLE3=04 - By the Sound of Her Voice
TTITLE4=05 - In a Little Spanish Town
TTITLE5=06 - Babylon
TTITLE6=07 - It's Just Not the Same
TTITLE7=08 - New Orleans
TTITLE8=09 - Like It Is
EXTD=YEAR: 2014
EXTT0=
EXTT1=
EXTT2=
EXTT3=
EXTT4=
EXTT5=
EXTT6=
EXTT7=
EXTT8=
PLAYORDER=
